<?xml version="1.0" encoding="utf-8"?>
<!-- Generator: Adobe Illustrator 18.1.0, SVG Export Plug-In . SVG Version: 6.00 Build 0)  -->
<svg version="1.1" id="Layer_1" xmlns="http://www.w3.org/2000/svg" xmlns:xlink="http://www.w3.org/1999/xlink" x="0px" y="0px"
	 viewBox="0 0 76.469 59.914" enable-background="new 0 0 76.469 59.914" xml:space="preserve">
<g>
	<g>
		<path fill="#FFFFFF" d="M38.204,4.518c15.161,0,27.862,8.52,30.965,19.86l7.299,4.629c-0.242-7.705-4.221-14.909-11.271-20.357
			C57.979,3.072,48.393,0,38.204,0S18.429,3.072,11.211,8.65C4.495,13.839,0.567,20.621,0,27.912l6.668,4.376
			c0-0.003,0-0.006-0.001-0.008l27.625,18.147c0.474,0.311,1.088,0.381,1.588,0.114c0.003-0.002,0.007-0.004,0.01-0.005l4.997-2.705
			c0.719-0.389,1.23-1.054,1.437-1.823V28.931l-8.344,4.517l-0.034,6.732L13.143,27.598H6.632
			C8.01,14.689,21.639,4.518,38.204,4.518z"/>
		<path fill="#FFFFFF" d="M38.264,55.396c-15.161,0-27.862-8.52-30.965-19.86L0,30.907c0.242,7.705,4.221,14.909,11.271,20.357
			c7.219,5.578,16.805,8.65,26.994,8.65s19.775-3.072,26.994-8.65c6.715-5.189,10.644-11.972,11.211-19.262L69.8,27.626
			c0,0.003,0,0.006,0.001,0.008L42.176,9.487c-0.474-0.311-1.088-0.381-1.588-0.114c-0.003,0.002-0.007,0.004-0.01,0.005
			l-4.997,2.705c-0.719,0.389-1.23,1.054-1.437,1.823v17.076l8.344-4.517l0.034-6.732l20.802,12.583h6.512
			C68.458,45.225,54.829,55.396,38.264,55.396z"/>
	</g>
</g>
</svg>
