<?xml version="1.0" encoding="utf-8"?>
<!-- Generator: Adobe Illustrator 18.1.0, SVG Export Plug-In . SVG Version: 6.00 Build 0)  -->
<svg version="1.1" xmlns="http://www.w3.org/2000/svg" xmlns:xlink="http://www.w3.org/1999/xlink" x="0px" y="0px"
	 viewBox="0 0 91.292 89.581" enable-background="new 0 0 91.292 89.581" xml:space="preserve">
<g>
	<g>
		<g>
			<path fill="#FFFFFF" d="M16.497,66.639c0.261-0.381,0.584-0.572,0.967-0.572c0.348,0,0.645,0.148,0.889,0.445
				c0.244,0.297,0.366,0.657,0.366,1.08c0,0.381-0.087,0.689-0.261,0.922l-0.026,0.032l-6.327,10.358
				c-0.314,0.488-0.71,0.885-1.19,1.192c-0.479,0.307-0.998,0.461-1.555,0.461c-0.523,0-1.016-0.138-1.477-0.413
				C7.42,79.868,7.033,79.487,6.719,79L0.366,68.673c-0.105-0.148-0.192-0.312-0.261-0.493C0.035,68.001,0,67.804,0,67.592
				c0-0.423,0.122-0.783,0.366-1.08c0.244-0.297,0.54-0.445,0.889-0.445c0.418,0,0.749,0.202,0.993,0.604l6.091,9.882
				c0.122,0.17,0.275,0.355,0.458,0.556c0.183,0.201,0.37,0.302,0.562,0.302c0.192,0,0.379-0.1,0.562-0.302
				c0.183-0.201,0.327-0.386,0.431-0.556L16.497,66.639z"/>
			<path fill="#FFFFFF" d="M23.843,78.396c0,0.424-0.122,0.784-0.366,1.081c-0.244,0.297-0.54,0.445-0.889,0.445
				c-0.349,0-0.645-0.148-0.889-0.445c-0.244-0.297-0.366-0.656-0.366-1.081V67.592c0-0.423,0.122-0.783,0.366-1.08
				c0.244-0.297,0.54-0.445,0.889-0.445c0.348,0,0.644,0.148,0.889,0.445c0.244,0.297,0.366,0.657,0.366,1.08V78.396z"/>
			<path fill="#FFFFFF" d="M30.039,79.921c-0.488,0-0.95-0.111-1.386-0.334c-0.436-0.222-0.815-0.524-1.137-0.906
				c-0.323-0.381-0.58-0.826-0.771-1.334c-0.192-0.508-0.288-1.059-0.288-1.652v-8.102c0-0.423,0.122-0.783,0.366-1.08
				c0.244-0.297,0.54-0.445,0.889-0.445c0.331,0,0.623,0.148,0.876,0.445c0.252,0.297,0.379,0.657,0.379,1.08v8.102
				c0,0.318,0.1,0.593,0.301,0.826c0.2,0.233,0.431,0.349,0.693,0.349h15.686c0.348,0,0.645,0.149,0.889,0.445
				c0.244,0.297,0.366,0.657,0.366,1.08c0,0.424-0.122,0.784-0.366,1.081c-0.244,0.297-0.54,0.445-0.889,0.445H30.039z"/>
			<path fill="#FFFFFF" d="M53.097,79.921c-0.488,0-0.95-0.111-1.386-0.334c-0.436-0.222-0.815-0.524-1.137-0.906
				c-0.323-0.381-0.58-0.826-0.771-1.334c-0.192-0.508-0.288-1.059-0.288-1.652v-8.102c0-0.423,0.122-0.783,0.366-1.08
				c0.244-0.297,0.54-0.445,0.889-0.445c0.331,0,0.623,0.148,0.876,0.445c0.252,0.297,0.379,0.657,0.379,1.08v8.102
				c0,0.318,0.1,0.593,0.301,0.826c0.2,0.233,0.431,0.349,0.693,0.349h15.686c0.348,0,0.644,0.149,0.889,0.445
				c0.244,0.297,0.366,0.657,0.366,1.08c0,0.424-0.122,0.784-0.366,1.081c-0.244,0.297-0.541,0.445-0.889,0.445H53.097z"/>
			<path fill="#FFFFFF" d="M74.796,79.349c-0.261,0.381-0.584,0.572-0.967,0.572c-0.349,0-0.645-0.148-0.889-0.445
				c-0.244-0.297-0.366-0.656-0.366-1.081c0-0.381,0.087-0.688,0.261-0.921l6.353-10.39c0.296-0.487,0.688-0.884,1.176-1.192
				c0.488-0.307,1.011-0.461,1.569-0.461c0.523,0,1.02,0.138,1.49,0.413c0.47,0.276,0.854,0.657,1.15,1.144l6.353,10.326
				c0.105,0.148,0.192,0.313,0.261,0.492c0.069,0.18,0.105,0.376,0.105,0.588c0,0.424-0.122,0.784-0.366,1.081
				c-0.244,0.297-0.54,0.445-0.889,0.445c-0.418,0-0.75-0.201-0.993-0.604l-6.091-9.882c-0.122-0.169-0.275-0.355-0.458-0.556
				c-0.183-0.201-0.37-0.302-0.562-0.302c-0.192,0-0.379,0.101-0.562,0.302c-0.183,0.201-0.327,0.387-0.431,0.556L74.796,79.349z"/>
		</g>
		<g>
			<path fill="#FFFFFF" d="M1.663,89.331c-0.114,0.166-0.255,0.25-0.422,0.25c-0.152,0-0.281-0.065-0.388-0.194
				c-0.107-0.129-0.16-0.286-0.16-0.471c0-0.166,0.038-0.3,0.114-0.402l2.773-4.535c0.129-0.213,0.3-0.386,0.514-0.52
				c0.213-0.134,0.441-0.201,0.685-0.201c0.228,0,0.445,0.06,0.651,0.181c0.205,0.12,0.373,0.287,0.502,0.499l2.773,4.507
				c0.046,0.065,0.084,0.137,0.114,0.215c0.03,0.079,0.046,0.164,0.046,0.257c0,0.185-0.053,0.342-0.16,0.471
				c-0.106,0.13-0.236,0.194-0.388,0.194c-0.182,0-0.327-0.088-0.434-0.263l-2.659-4.313c-0.053-0.074-0.12-0.155-0.2-0.243
				c-0.08-0.088-0.162-0.132-0.245-0.132c-0.084,0-0.165,0.044-0.245,0.132c-0.08,0.088-0.143,0.169-0.188,0.243L1.663,89.331z"/>
			<path fill="#FFFFFF" d="M10.814,86.557c0,0.166,0.017,0.349,0.051,0.548s0.099,0.381,0.194,0.548
				c0.095,0.166,0.224,0.308,0.388,0.423c0.163,0.116,0.378,0.173,0.645,0.173h4.542c0.259,0,0.472-0.058,0.639-0.173
				c0.167-0.115,0.298-0.257,0.394-0.423c0.095-0.166,0.16-0.349,0.194-0.548c0.034-0.199,0.051-0.381,0.051-0.548v-2.344
				c0-0.185,0.053-0.342,0.16-0.471c0.106-0.129,0.236-0.194,0.388-0.194c0.152,0,0.281,0.065,0.388,0.194
				c0.106,0.129,0.16,0.287,0.16,0.471v2.344c0,0.352-0.048,0.705-0.143,1.061c-0.095,0.356-0.234,0.68-0.416,0.971
				c-0.183,0.291-0.403,0.529-0.662,0.714c-0.259,0.185-0.552,0.278-0.879,0.278h-5.204c-0.312-0.018-0.59-0.123-0.833-0.312
				c-0.243-0.189-0.451-0.427-0.622-0.714c-0.171-0.286-0.302-0.605-0.394-0.957c-0.091-0.351-0.137-0.698-0.137-1.04v-2.344
				c0-0.185,0.053-0.342,0.16-0.471c0.106-0.129,0.236-0.194,0.388-0.194s0.281,0.065,0.388,0.194
				c0.106,0.129,0.16,0.287,0.16,0.471V86.557z"/>
			<path fill="#FFFFFF" d="M28.547,83.534c0.152,0,0.281,0.065,0.388,0.194c0.106,0.129,0.16,0.287,0.16,0.471
				c0,0.185-0.053,0.342-0.16,0.471c-0.107,0.13-0.236,0.194-0.388,0.194H25.17v4.05c0,0.185-0.053,0.342-0.16,0.471
				c-0.107,0.13-0.236,0.194-0.388,0.194c-0.152,0-0.282-0.065-0.388-0.194c-0.107-0.129-0.16-0.286-0.16-0.471v-4.05h-3.423
				c-0.137-0.019-0.255-0.09-0.354-0.215c-0.099-0.125-0.148-0.275-0.148-0.451c0-0.185,0.053-0.342,0.16-0.471
				c0.106-0.129,0.236-0.194,0.388-0.194H28.547z"/>
			<path fill="#FFFFFF" d="M39.24,86.557c0,0.352-0.048,0.705-0.143,1.061c-0.095,0.356-0.234,0.68-0.416,0.971
				c-0.183,0.291-0.403,0.529-0.662,0.714c-0.259,0.185-0.552,0.278-0.879,0.278h-5.204c-0.312-0.018-0.59-0.123-0.833-0.312
				c-0.243-0.189-0.451-0.427-0.622-0.714c-0.171-0.286-0.302-0.605-0.394-0.957c-0.091-0.351-0.137-0.698-0.137-1.04
				c0-0.351,0.047-0.705,0.143-1.061c0.095-0.356,0.234-0.68,0.416-0.971c0.183-0.291,0.403-0.529,0.662-0.714
				c0.259-0.185,0.552-0.278,0.879-0.278h5.204c0.312,0.019,0.589,0.123,0.833,0.312c0.243,0.19,0.451,0.428,0.622,0.714
				c0.171,0.287,0.302,0.606,0.394,0.957C39.194,85.869,39.24,86.215,39.24,86.557z M36.9,88.249c0.259,0,0.472-0.058,0.639-0.173
				c0.167-0.115,0.298-0.257,0.394-0.423c0.095-0.166,0.16-0.349,0.194-0.548c0.034-0.199,0.051-0.381,0.051-0.548
				c0-0.166-0.017-0.349-0.051-0.548c-0.034-0.199-0.099-0.381-0.194-0.548c-0.095-0.166-0.226-0.307-0.394-0.423
				c-0.167-0.116-0.38-0.173-0.639-0.173h-4.61c-0.266,0-0.481,0.058-0.645,0.173c-0.164,0.116-0.293,0.257-0.388,0.423
				c-0.095,0.166-0.16,0.349-0.194,0.548c-0.034,0.199-0.051,0.381-0.051,0.548c0,0.166,0.017,0.349,0.051,0.548
				c0.034,0.199,0.099,0.381,0.194,0.548c0.095,0.166,0.224,0.308,0.388,0.423c0.163,0.116,0.378,0.173,0.645,0.173H36.9z"/>
			<path fill="#FFFFFF" d="M41.898,87.223c-0.213,0-0.411-0.048-0.593-0.146c-0.182-0.097-0.342-0.229-0.479-0.395
				c-0.137-0.166-0.245-0.361-0.325-0.583c-0.08-0.222-0.12-0.462-0.12-0.721c0-0.259,0.04-0.499,0.12-0.721
				c0.08-0.222,0.188-0.416,0.325-0.583c0.137-0.166,0.297-0.298,0.479-0.395c0.183-0.097,0.38-0.145,0.593-0.145h6.927
				c0.152,0,0.281,0.065,0.388,0.194c0.106,0.129,0.16,0.287,0.16,0.471c0,0.185-0.053,0.342-0.16,0.471
				c-0.107,0.13-0.236,0.194-0.388,0.194h-6.949c-0.114,0-0.215,0.048-0.302,0.145c-0.087,0.097-0.131,0.22-0.131,0.368
				c0,0.139,0.044,0.259,0.131,0.36c0.087,0.102,0.188,0.153,0.302,0.153h6.31c0.213,0,0.412,0.048,0.599,0.146
				c0.186,0.097,0.348,0.229,0.485,0.395c0.137,0.166,0.245,0.363,0.325,0.589c0.08,0.227,0.12,0.47,0.12,0.728
				c0,0.259-0.04,0.499-0.12,0.721c-0.08,0.222-0.188,0.416-0.325,0.583c-0.137,0.166-0.299,0.296-0.485,0.389
				c-0.187,0.092-0.386,0.139-0.599,0.139h-6.915c-0.152,0-0.281-0.065-0.388-0.194c-0.107-0.129-0.16-0.286-0.16-0.471
				c0-0.185,0.053-0.342,0.16-0.471c0.106-0.129,0.236-0.194,0.388-0.194h6.961c0.114,0,0.213-0.048,0.297-0.145
				c0.084-0.097,0.126-0.215,0.126-0.354c0-0.148-0.042-0.273-0.126-0.374c-0.084-0.102-0.182-0.152-0.297-0.152H41.898z"/>
			<path fill="#FFFFFF" d="M50.856,84.2c0-0.185,0.053-0.342,0.16-0.471c0.106-0.129,0.236-0.194,0.388-0.194h6.835
				c0.213,0,0.412,0.048,0.599,0.145c0.186,0.097,0.35,0.229,0.491,0.395c0.141,0.166,0.251,0.36,0.331,0.583
				c0.08,0.222,0.12,0.462,0.12,0.721c0,0.259-0.04,0.499-0.12,0.721c-0.08,0.222-0.19,0.416-0.331,0.583
				c-0.141,0.166-0.304,0.298-0.491,0.395c-0.186,0.097-0.386,0.146-0.599,0.146h-5.934c-0.099,0.019-0.182,0.074-0.251,0.166
				c-0.068,0.092-0.103,0.208-0.103,0.347v1.179c0,0.185-0.055,0.342-0.165,0.471c-0.11,0.13-0.238,0.194-0.382,0.194
				c-0.152,0-0.281-0.065-0.388-0.194c-0.107-0.129-0.16-0.286-0.16-0.471v-1.332c0-0.231,0.034-0.451,0.103-0.659
				c0.068-0.208,0.165-0.389,0.291-0.541c0.125-0.153,0.27-0.273,0.434-0.361c0.163-0.088,0.344-0.132,0.542-0.132h6.059
				c0.114,0,0.215-0.048,0.302-0.145c0.087-0.097,0.131-0.22,0.131-0.368c0-0.139-0.044-0.259-0.131-0.361
				c-0.087-0.102-0.188-0.152-0.302-0.152h-6.881c-0.152,0-0.281-0.065-0.388-0.194C50.909,84.542,50.856,84.385,50.856,84.2z"/>
			<path fill="#FFFFFF" d="M70.209,86.557c0,0.352-0.048,0.705-0.143,1.061c-0.095,0.356-0.234,0.68-0.417,0.971
				c-0.182,0.291-0.403,0.529-0.662,0.714c-0.259,0.185-0.551,0.278-0.878,0.278h-5.204c-0.312-0.018-0.59-0.123-0.833-0.312
				c-0.243-0.189-0.451-0.427-0.622-0.714c-0.171-0.286-0.302-0.605-0.394-0.957c-0.091-0.351-0.137-0.698-0.137-1.04
				c0-0.351,0.048-0.705,0.143-1.061c0.095-0.356,0.234-0.68,0.416-0.971c0.182-0.291,0.403-0.529,0.662-0.714
				c0.259-0.185,0.551-0.278,0.879-0.278h5.204c0.312,0.019,0.589,0.123,0.833,0.312c0.243,0.19,0.451,0.428,0.622,0.714
				c0.171,0.287,0.302,0.606,0.393,0.957C70.164,85.869,70.209,86.215,70.209,86.557z M67.87,88.249
				c0.259,0,0.472-0.058,0.639-0.173c0.167-0.115,0.298-0.257,0.393-0.423c0.095-0.166,0.16-0.349,0.194-0.548
				c0.034-0.199,0.051-0.381,0.051-0.548c0-0.166-0.017-0.349-0.051-0.548c-0.034-0.199-0.099-0.381-0.194-0.548
				c-0.095-0.166-0.226-0.307-0.393-0.423c-0.167-0.116-0.381-0.173-0.639-0.173h-4.61c-0.266,0-0.481,0.058-0.644,0.173
				c-0.164,0.116-0.293,0.257-0.388,0.423c-0.095,0.166-0.16,0.349-0.194,0.548c-0.034,0.199-0.051,0.381-0.051,0.548
				c0,0.166,0.017,0.349,0.051,0.548c0.034,0.199,0.099,0.381,0.194,0.548c0.095,0.166,0.224,0.308,0.388,0.423
				c0.163,0.116,0.378,0.173,0.644,0.173H67.87z"/>
			<path fill="#FFFFFF" d="M78.688,87.223c0.205,0.157,0.415,0.326,0.628,0.506c0.213,0.18,0.43,0.377,0.65,0.589
				c0.084,0.074,0.156,0.16,0.217,0.257c0.061,0.097,0.091,0.21,0.091,0.34c0,0.185-0.053,0.342-0.16,0.471
				c-0.106,0.13-0.236,0.194-0.388,0.194c-0.129,0-0.259-0.065-0.388-0.194c-0.312-0.277-0.632-0.545-0.959-0.804
				c-0.327-0.259-0.668-0.49-1.021-0.693c-0.354-0.203-0.721-0.365-1.101-0.486c-0.381-0.12-0.776-0.18-1.187-0.18H72.8
				c-0.099,0.019-0.183,0.074-0.251,0.166s-0.103,0.208-0.103,0.347v1.179c0,0.185-0.055,0.342-0.165,0.471
				c-0.11,0.13-0.238,0.194-0.382,0.194c-0.152,0-0.281-0.065-0.388-0.194c-0.106-0.129-0.16-0.286-0.16-0.471v-1.332
				c0-0.231,0.036-0.451,0.108-0.659c0.072-0.208,0.169-0.389,0.291-0.541c0.122-0.153,0.266-0.273,0.434-0.361
				c0.167-0.088,0.35-0.132,0.548-0.132h6.048c0.114,0,0.215-0.048,0.302-0.145c0.087-0.097,0.131-0.22,0.131-0.368
				c0-0.139-0.044-0.259-0.131-0.361c-0.087-0.102-0.188-0.152-0.302-0.152h-6.881c-0.152,0-0.281-0.065-0.388-0.194
				c-0.106-0.129-0.16-0.286-0.16-0.471c0-0.185,0.053-0.342,0.16-0.471c0.106-0.129,0.236-0.194,0.388-0.194h6.835
				c0.213,0,0.412,0.048,0.599,0.145c0.186,0.097,0.35,0.229,0.491,0.395c0.141,0.166,0.251,0.36,0.331,0.583
				c0.08,0.222,0.12,0.462,0.12,0.721c0,0.259-0.04,0.499-0.12,0.721c-0.08,0.222-0.19,0.416-0.331,0.583
				c-0.141,0.166-0.304,0.298-0.491,0.395c-0.186,0.097-0.386,0.146-0.599,0.146H78.688z"/>
			<path fill="#FFFFFF" d="M89.813,83.534c0.152,0,0.281,0.065,0.388,0.194c0.106,0.129,0.16,0.287,0.16,0.471
				c0,0.185-0.053,0.342-0.16,0.471c-0.107,0.13-0.236,0.194-0.388,0.194h-3.378v4.05c0,0.185-0.053,0.342-0.16,0.471
				c-0.106,0.13-0.236,0.194-0.388,0.194c-0.152,0-0.281-0.065-0.388-0.194c-0.106-0.129-0.16-0.286-0.16-0.471v-4.05h-3.423
				c-0.137-0.019-0.255-0.09-0.354-0.215c-0.099-0.125-0.148-0.275-0.148-0.451c0-0.185,0.053-0.342,0.16-0.471
				c0.106-0.129,0.236-0.194,0.388-0.194H89.813z"/>
		</g>
		<g>
			<path fill="#FFFFFF" d="M44.849,4.518c15.161,0,27.862,8.52,30.965,19.86l7.299,4.629c-0.242-7.705-4.221-14.909-11.271-20.357
				C64.624,3.072,55.037,0,44.849,0S25.074,3.072,17.855,8.65C11.14,13.839,7.212,20.621,6.644,27.912l6.668,4.376
				c0-0.003,0-0.006-0.001-0.008l27.625,18.147c0.474,0.311,1.088,0.381,1.588,0.114c0.003-0.002,0.007-0.004,0.01-0.005
				l4.997-2.705c0.719-0.389,1.23-1.054,1.437-1.823V28.931l-8.344,4.517L40.59,40.18L19.788,27.598h-6.512
				C14.655,14.689,28.284,4.518,44.849,4.518z"/>
			<path fill="#FFFFFF" d="M44.909,55.396c-15.161,0-27.862-8.52-30.965-19.86l-7.299-4.629c0.242,7.705,4.221,14.909,11.271,20.357
				c7.219,5.578,16.805,8.65,26.994,8.65s19.775-3.072,26.994-8.65c6.715-5.189,10.644-11.972,11.211-19.262l-6.668-4.376
				c0,0.003,0,0.006,0.001,0.008L48.821,9.487c-0.474-0.311-1.088-0.381-1.588-0.114c-0.003,0.002-0.007,0.004-0.01,0.005
				l-4.997,2.705c-0.719,0.389-1.23,1.054-1.437,1.823v17.076l8.344-4.517l0.034-6.732L69.97,32.316h6.512
				C75.103,45.225,61.474,55.396,44.909,55.396z"/>
		</g>
	</g>
</g>
</svg>
