<?xml version="1.0" encoding="utf-8"?>
<!-- Generator: Adobe Illustrator 18.1.0, SVG Export Plug-In . SVG Version: 6.00 Build 0)  -->
<svg version="1.1" xmlns="http://www.w3.org/2000/svg" xmlns:xlink="http://www.w3.org/1999/xlink" x="0px" y="0px"
	 viewBox="0 0 238.14 232.669" enable-background="new 0 0 238.14 232.669" xml:space="preserve">
<g id="White">
	<linearGradient id="Background_1_" gradientUnits="userSpaceOnUse" x1="-196.5173" y1="337.3388" x2="443.4827" y2="337.3388">
		<stop  offset="0" style="stop-color:#07677D"/>
		<stop  offset="0.543" style="stop-color:#1F96B2"/>
		<stop  offset="0.6116" style="stop-color:#198AA4"/>
		<stop  offset="0.7476" style="stop-color:#0F778E"/>
		<stop  offset="0.8791" style="stop-color:#096B81"/>
		<stop  offset="1" style="stop-color:#07677D"/>
	</linearGradient>
	<rect id="Background" x="-196.517" y="268.382" fill="url(#Background_1_)" width="640" height="137.915"/>
	<g>
		<g>
			<path fill="#FFFFFF" d="M92.473,356.501c0.261-0.381,0.584-0.572,0.967-0.572c0.348,0,0.645,0.148,0.889,0.445
				c0.244,0.297,0.366,0.657,0.366,1.08c0,0.381-0.087,0.689-0.261,0.922l-0.026,0.032l-6.327,10.358
				c-0.314,0.488-0.71,0.885-1.19,1.192c-0.479,0.307-0.998,0.461-1.555,0.461c-0.523,0-1.016-0.138-1.477-0.413
				c-0.462-0.275-0.85-0.656-1.163-1.144l-6.353-10.326c-0.105-0.148-0.192-0.312-0.261-0.493c-0.07-0.18-0.105-0.376-0.105-0.588
				c0-0.423,0.122-0.783,0.366-1.08c0.244-0.297,0.54-0.445,0.889-0.445c0.418,0,0.749,0.202,0.993,0.604l6.091,9.882
				c0.122,0.17,0.275,0.355,0.458,0.556c0.183,0.201,0.37,0.302,0.562,0.302c0.191,0,0.379-0.1,0.562-0.302
				c0.183-0.201,0.327-0.386,0.431-0.556L92.473,356.501z"/>
			<path fill="#FFFFFF" d="M99.819,368.257c0,0.424-0.122,0.784-0.366,1.081c-0.244,0.297-0.54,0.445-0.889,0.445
				c-0.349,0-0.645-0.148-0.889-0.445c-0.244-0.297-0.366-0.656-0.366-1.081v-10.803c0-0.423,0.122-0.783,0.366-1.08
				c0.244-0.297,0.54-0.445,0.889-0.445c0.348,0,0.644,0.148,0.889,0.445c0.244,0.297,0.366,0.657,0.366,1.08V368.257z"/>
			<path fill="#FFFFFF" d="M106.015,369.782c-0.488,0-0.95-0.111-1.386-0.334c-0.436-0.222-0.815-0.524-1.137-0.906
				c-0.323-0.381-0.58-0.826-0.771-1.334c-0.192-0.509-0.288-1.059-0.288-1.652v-8.102c0-0.423,0.122-0.783,0.366-1.08
				c0.244-0.297,0.54-0.445,0.889-0.445c0.331,0,0.623,0.148,0.876,0.445c0.252,0.297,0.379,0.657,0.379,1.08v8.102
				c0,0.318,0.1,0.593,0.301,0.826c0.2,0.233,0.431,0.349,0.693,0.349h15.686c0.348,0,0.645,0.149,0.889,0.445
				c0.244,0.297,0.366,0.657,0.366,1.08c0,0.424-0.122,0.784-0.366,1.081c-0.244,0.297-0.54,0.445-0.889,0.445H106.015z"/>
			<path fill="#FFFFFF" d="M129.074,369.782c-0.488,0-0.95-0.111-1.386-0.334c-0.436-0.222-0.815-0.524-1.137-0.906
				c-0.323-0.381-0.58-0.826-0.771-1.334c-0.192-0.509-0.288-1.059-0.288-1.652v-8.102c0-0.423,0.122-0.783,0.366-1.08
				c0.244-0.297,0.54-0.445,0.889-0.445c0.331,0,0.623,0.148,0.876,0.445c0.252,0.297,0.379,0.657,0.379,1.08v8.102
				c0,0.318,0.1,0.593,0.301,0.826c0.2,0.233,0.431,0.349,0.693,0.349h15.686c0.348,0,0.644,0.149,0.889,0.445
				c0.244,0.297,0.366,0.657,0.366,1.08c0,0.424-0.122,0.784-0.366,1.081c-0.244,0.297-0.541,0.445-0.889,0.445H129.074z"/>
			<path fill="#FFFFFF" d="M150.772,369.21c-0.261,0.381-0.584,0.572-0.967,0.572c-0.349,0-0.645-0.148-0.889-0.445
				c-0.244-0.297-0.366-0.656-0.366-1.081c0-0.381,0.087-0.688,0.261-0.921l6.353-10.39c0.296-0.487,0.688-0.884,1.176-1.192
				c0.488-0.307,1.011-0.461,1.569-0.461c0.523,0,1.02,0.138,1.49,0.413c0.47,0.276,0.854,0.657,1.15,1.144l6.353,10.326
				c0.105,0.148,0.192,0.313,0.261,0.492c0.069,0.18,0.105,0.376,0.105,0.588c0,0.424-0.122,0.784-0.366,1.081
				c-0.244,0.297-0.54,0.445-0.889,0.445c-0.418,0-0.75-0.201-0.993-0.604l-6.091-9.882c-0.122-0.169-0.275-0.355-0.458-0.556
				c-0.183-0.201-0.37-0.302-0.562-0.302c-0.192,0-0.379,0.101-0.562,0.302c-0.183,0.201-0.327,0.387-0.431,0.556L150.772,369.21z"
				/>
		</g>
		<g>
			<path fill="#FFFFFF" d="M77.639,379.192c-0.114,0.166-0.255,0.25-0.422,0.25c-0.152,0-0.281-0.065-0.388-0.194
				c-0.107-0.129-0.16-0.286-0.16-0.471c0-0.166,0.038-0.3,0.114-0.402l2.773-4.535c0.129-0.213,0.3-0.386,0.514-0.52
				c0.213-0.134,0.441-0.201,0.685-0.201c0.228,0,0.445,0.06,0.651,0.181s0.373,0.287,0.502,0.499l2.773,4.507
				c0.046,0.065,0.084,0.137,0.114,0.215c0.03,0.079,0.046,0.164,0.046,0.257c0,0.185-0.053,0.342-0.16,0.471
				c-0.106,0.13-0.236,0.194-0.388,0.194c-0.182,0-0.327-0.088-0.434-0.263l-2.659-4.313c-0.053-0.074-0.12-0.155-0.2-0.243
				c-0.08-0.088-0.162-0.132-0.245-0.132s-0.165,0.044-0.245,0.132c-0.08,0.088-0.143,0.169-0.188,0.243L77.639,379.192z"/>
			<path fill="#FFFFFF" d="M86.791,376.419c0,0.166,0.017,0.349,0.051,0.548c0.034,0.199,0.099,0.381,0.194,0.548
				c0.095,0.166,0.224,0.308,0.388,0.423c0.163,0.116,0.378,0.173,0.645,0.173h4.542c0.259,0,0.472-0.058,0.639-0.173
				c0.167-0.115,0.298-0.257,0.394-0.423c0.095-0.166,0.16-0.349,0.194-0.548c0.034-0.199,0.051-0.381,0.051-0.548v-2.344
				c0-0.185,0.053-0.342,0.16-0.471c0.106-0.129,0.236-0.194,0.388-0.194c0.152,0,0.281,0.065,0.388,0.194
				c0.106,0.129,0.16,0.287,0.16,0.471v2.344c0,0.352-0.048,0.705-0.143,1.061c-0.095,0.356-0.234,0.68-0.416,0.971
				c-0.183,0.291-0.403,0.529-0.662,0.714c-0.259,0.185-0.552,0.278-0.879,0.278h-5.204c-0.312-0.018-0.59-0.123-0.833-0.312
				c-0.243-0.189-0.451-0.427-0.622-0.714c-0.171-0.286-0.302-0.605-0.394-0.957c-0.091-0.351-0.137-0.698-0.137-1.04v-2.344
				c0-0.185,0.053-0.342,0.16-0.471c0.106-0.129,0.236-0.194,0.388-0.194c0.152,0,0.281,0.065,0.388,0.194
				c0.106,0.129,0.16,0.287,0.16,0.471V376.419z"/>
			<path fill="#FFFFFF" d="M104.524,373.395c0.152,0,0.281,0.065,0.388,0.194c0.106,0.129,0.16,0.287,0.16,0.471
				c0,0.185-0.053,0.342-0.16,0.471c-0.107,0.13-0.236,0.194-0.388,0.194h-3.378v4.05c0,0.185-0.053,0.342-0.16,0.471
				c-0.107,0.13-0.236,0.194-0.388,0.194c-0.152,0-0.282-0.065-0.388-0.194c-0.107-0.129-0.16-0.286-0.16-0.471v-4.05h-3.423
				c-0.137-0.019-0.255-0.09-0.354-0.215c-0.099-0.125-0.148-0.275-0.148-0.451c0-0.185,0.053-0.342,0.16-0.471
				c0.106-0.129,0.236-0.194,0.388-0.194H104.524z"/>
			<path fill="#FFFFFF" d="M115.216,376.419c0,0.352-0.048,0.705-0.143,1.061c-0.095,0.356-0.234,0.68-0.416,0.971
				c-0.183,0.291-0.403,0.529-0.662,0.714c-0.259,0.185-0.552,0.278-0.879,0.278h-5.204c-0.312-0.018-0.59-0.123-0.833-0.312
				c-0.243-0.189-0.451-0.427-0.622-0.714c-0.171-0.286-0.302-0.605-0.394-0.957c-0.091-0.351-0.137-0.698-0.137-1.04
				c0-0.351,0.047-0.705,0.143-1.061c0.095-0.356,0.234-0.68,0.416-0.971c0.183-0.291,0.403-0.529,0.662-0.714
				c0.259-0.185,0.552-0.277,0.879-0.277h5.204c0.312,0.019,0.589,0.123,0.833,0.312c0.243,0.19,0.451,0.428,0.622,0.714
				c0.171,0.287,0.302,0.606,0.394,0.957C115.17,375.73,115.216,376.076,115.216,376.419z M112.877,378.11
				c0.259,0,0.472-0.058,0.639-0.173c0.167-0.115,0.298-0.257,0.394-0.423c0.095-0.166,0.16-0.349,0.194-0.548
				c0.034-0.199,0.051-0.381,0.051-0.548s-0.017-0.349-0.051-0.548c-0.034-0.199-0.099-0.381-0.194-0.548
				c-0.095-0.166-0.226-0.307-0.394-0.423c-0.167-0.116-0.38-0.173-0.639-0.173h-4.61c-0.266,0-0.481,0.058-0.645,0.173
				c-0.164,0.116-0.293,0.257-0.388,0.423c-0.095,0.166-0.16,0.349-0.194,0.548c-0.034,0.199-0.051,0.381-0.051,0.548
				s0.017,0.349,0.051,0.548c0.034,0.199,0.099,0.381,0.194,0.548c0.095,0.166,0.224,0.308,0.388,0.423
				c0.163,0.116,0.378,0.173,0.645,0.173H112.877z"/>
			<path fill="#FFFFFF" d="M117.875,377.084c-0.213,0-0.411-0.048-0.593-0.146c-0.182-0.097-0.342-0.229-0.479-0.395
				c-0.137-0.166-0.245-0.361-0.325-0.583c-0.08-0.222-0.12-0.462-0.12-0.721c0-0.259,0.04-0.499,0.12-0.721
				c0.08-0.222,0.188-0.416,0.325-0.583c0.137-0.166,0.297-0.298,0.479-0.395c0.183-0.097,0.38-0.145,0.593-0.145h6.927
				c0.152,0,0.281,0.065,0.388,0.194c0.106,0.129,0.16,0.287,0.16,0.471c0,0.185-0.053,0.342-0.16,0.471
				c-0.107,0.13-0.236,0.194-0.388,0.194h-6.949c-0.114,0-0.215,0.048-0.302,0.145c-0.087,0.097-0.131,0.22-0.131,0.368
				c0,0.139,0.044,0.259,0.131,0.36c0.087,0.102,0.188,0.153,0.302,0.153h6.31c0.213,0,0.412,0.048,0.599,0.146
				c0.186,0.097,0.348,0.229,0.485,0.395c0.137,0.166,0.245,0.363,0.325,0.589c0.08,0.227,0.12,0.47,0.12,0.728
				c0,0.259-0.04,0.499-0.12,0.721c-0.08,0.222-0.188,0.416-0.325,0.583c-0.137,0.166-0.299,0.296-0.485,0.389
				c-0.187,0.092-0.386,0.139-0.599,0.139h-6.915c-0.152,0-0.281-0.065-0.388-0.194c-0.107-0.129-0.16-0.286-0.16-0.471
				c0-0.185,0.053-0.342,0.16-0.471c0.106-0.129,0.236-0.194,0.388-0.194h6.961c0.114,0,0.213-0.048,0.297-0.145
				c0.084-0.097,0.126-0.215,0.126-0.354c0-0.148-0.042-0.273-0.126-0.374c-0.084-0.102-0.182-0.152-0.297-0.152H117.875z"/>
			<path fill="#FFFFFF" d="M126.832,374.061c0-0.185,0.053-0.342,0.16-0.471c0.106-0.129,0.236-0.194,0.388-0.194h6.835
				c0.213,0,0.412,0.048,0.599,0.145c0.186,0.097,0.35,0.229,0.491,0.395c0.141,0.166,0.251,0.36,0.331,0.583
				c0.08,0.222,0.12,0.462,0.12,0.721c0,0.259-0.04,0.499-0.12,0.721c-0.08,0.222-0.19,0.416-0.331,0.583
				c-0.141,0.166-0.304,0.298-0.491,0.395c-0.186,0.097-0.386,0.146-0.599,0.146h-5.934c-0.099,0.019-0.182,0.074-0.251,0.166
				c-0.068,0.092-0.103,0.208-0.103,0.347v1.179c0,0.185-0.055,0.342-0.165,0.471c-0.11,0.13-0.238,0.194-0.382,0.194
				c-0.152,0-0.281-0.065-0.388-0.194c-0.107-0.129-0.16-0.286-0.16-0.471v-1.332c0-0.231,0.034-0.451,0.103-0.659
				c0.068-0.208,0.165-0.389,0.291-0.541c0.125-0.153,0.27-0.273,0.434-0.361c0.163-0.088,0.344-0.132,0.542-0.132h6.059
				c0.114,0,0.215-0.048,0.302-0.145c0.087-0.097,0.131-0.22,0.131-0.368c0-0.139-0.044-0.259-0.131-0.361
				c-0.087-0.102-0.188-0.152-0.302-0.152h-6.881c-0.152,0-0.281-0.065-0.388-0.194
				C126.885,374.403,126.832,374.246,126.832,374.061z"/>
			<path fill="#FFFFFF" d="M146.186,376.419c0,0.352-0.048,0.705-0.143,1.061c-0.095,0.356-0.234,0.68-0.417,0.971
				c-0.182,0.291-0.403,0.529-0.662,0.714c-0.258,0.185-0.551,0.278-0.878,0.278h-5.204c-0.312-0.018-0.59-0.123-0.833-0.312
				c-0.243-0.189-0.451-0.427-0.622-0.714c-0.171-0.286-0.302-0.605-0.394-0.957c-0.091-0.351-0.137-0.698-0.137-1.04
				c0-0.351,0.048-0.705,0.143-1.061c0.095-0.356,0.234-0.68,0.416-0.971c0.182-0.291,0.403-0.529,0.662-0.714
				c0.259-0.185,0.551-0.277,0.879-0.277h5.204c0.312,0.019,0.589,0.123,0.833,0.312c0.243,0.19,0.451,0.428,0.622,0.714
				c0.171,0.287,0.302,0.606,0.393,0.957C146.14,375.73,146.186,376.076,146.186,376.419z M143.846,378.11
				c0.259,0,0.472-0.058,0.639-0.173c0.167-0.115,0.298-0.257,0.393-0.423s0.16-0.349,0.194-0.548
				c0.034-0.199,0.051-0.381,0.051-0.548s-0.017-0.349-0.051-0.548c-0.034-0.199-0.099-0.381-0.194-0.548
				c-0.095-0.166-0.226-0.307-0.393-0.423c-0.167-0.116-0.381-0.173-0.639-0.173h-4.61c-0.266,0-0.481,0.058-0.644,0.173
				c-0.164,0.116-0.293,0.257-0.388,0.423c-0.095,0.166-0.16,0.349-0.194,0.548c-0.034,0.199-0.051,0.381-0.051,0.548
				s0.017,0.349,0.051,0.548c0.034,0.199,0.099,0.381,0.194,0.548c0.095,0.166,0.224,0.308,0.388,0.423
				c0.163,0.116,0.378,0.173,0.644,0.173H143.846z"/>
			<path fill="#FFFFFF" d="M154.664,377.084c0.205,0.157,0.415,0.326,0.628,0.506c0.213,0.18,0.43,0.377,0.65,0.589
				c0.084,0.074,0.156,0.16,0.217,0.257c0.061,0.097,0.091,0.21,0.091,0.34c0,0.185-0.053,0.342-0.16,0.471
				c-0.106,0.13-0.236,0.194-0.388,0.194c-0.129,0-0.259-0.065-0.388-0.194c-0.312-0.277-0.632-0.545-0.959-0.804
				c-0.327-0.259-0.668-0.49-1.021-0.693c-0.354-0.203-0.721-0.365-1.101-0.486c-0.381-0.12-0.776-0.18-1.187-0.18h-2.271
				c-0.099,0.019-0.183,0.074-0.251,0.166c-0.068,0.092-0.103,0.208-0.103,0.347v1.179c0,0.185-0.055,0.342-0.165,0.471
				c-0.11,0.13-0.238,0.194-0.382,0.194c-0.152,0-0.281-0.065-0.388-0.194c-0.106-0.129-0.16-0.286-0.16-0.471v-1.332
				c0-0.231,0.036-0.451,0.108-0.659c0.072-0.208,0.169-0.389,0.291-0.541c0.122-0.153,0.266-0.273,0.434-0.361
				c0.167-0.088,0.35-0.132,0.548-0.132h6.048c0.114,0,0.215-0.048,0.302-0.145c0.087-0.097,0.131-0.22,0.131-0.368
				c0-0.139-0.044-0.259-0.131-0.361c-0.087-0.102-0.188-0.152-0.302-0.152h-6.881c-0.152,0-0.281-0.065-0.388-0.194
				c-0.106-0.129-0.16-0.286-0.16-0.471c0-0.185,0.053-0.342,0.16-0.471c0.106-0.129,0.236-0.194,0.388-0.194h6.835
				c0.213,0,0.412,0.048,0.599,0.145c0.186,0.097,0.35,0.229,0.491,0.395c0.141,0.166,0.251,0.36,0.331,0.583
				c0.08,0.222,0.12,0.462,0.12,0.721c0,0.259-0.04,0.499-0.12,0.721c-0.08,0.222-0.19,0.416-0.331,0.583
				c-0.141,0.166-0.304,0.298-0.491,0.395c-0.186,0.097-0.386,0.146-0.599,0.146H154.664z"/>
			<path fill="#FFFFFF" d="M165.789,373.395c0.152,0,0.281,0.065,0.388,0.194c0.106,0.129,0.16,0.287,0.16,0.471
				c0,0.185-0.053,0.342-0.16,0.471c-0.107,0.13-0.236,0.194-0.388,0.194h-3.378v4.05c0,0.185-0.053,0.342-0.16,0.471
				c-0.106,0.13-0.236,0.194-0.388,0.194c-0.152,0-0.281-0.065-0.388-0.194c-0.106-0.129-0.16-0.286-0.16-0.471v-4.05h-3.423
				c-0.137-0.019-0.255-0.09-0.354-0.215c-0.099-0.125-0.148-0.275-0.148-0.451c0-0.185,0.053-0.342,0.16-0.471
				c0.106-0.129,0.236-0.194,0.388-0.194H165.789z"/>
		</g>
		<g>
			<path fill="#FFFFFF" d="M120.825,294.379c15.161,0,27.862,8.52,30.965,19.86l7.299,4.629
				c-0.242-7.705-4.221-14.909-11.271-20.357c-7.219-5.578-16.805-8.65-26.994-8.65s-19.775,3.072-26.994,8.65
				c-6.715,5.189-10.644,11.972-11.211,19.262l6.668,4.376c0-0.003,0-0.006-0.001-0.008l27.625,18.147
				c0.474,0.311,1.088,0.381,1.588,0.114c0.003-0.002,0.007-0.004,0.01-0.005l4.997-2.705c0.719-0.389,1.23-1.054,1.437-1.823
				v-17.076l-8.344,4.517l-0.034,6.732l-20.802-12.583h-6.512C90.631,304.55,104.26,294.379,120.825,294.379z"/>
			<path fill="#FFFFFF" d="M120.885,345.257c-15.161,0-27.862-8.52-30.965-19.86l-7.299-4.629
				c0.242,7.705,4.221,14.909,11.271,20.357c7.219,5.578,16.805,8.65,26.994,8.65s19.775-3.072,26.994-8.65
				c6.715-5.189,10.644-11.972,11.211-19.262l-6.668-4.376c0,0.003,0,0.006,0.001,0.008l-27.625-18.147
				c-0.474-0.311-1.088-0.381-1.588-0.114c-0.003,0.002-0.007,0.004-0.01,0.005l-4.997,2.705c-0.719,0.389-1.23,1.054-1.437,1.823
				v17.076l8.344-4.517l0.034-6.732l20.802,12.583h6.512C151.079,335.086,137.45,345.257,120.885,345.257z"/>
		</g>
	</g>
</g>
<g id="Color">
	<g id="Text">
		<g id="Villa">
			<linearGradient id="SVGID_1_" gradientUnits="userSpaceOnUse" x1="24.4143" y1="213.2881" x2="24.4143" y2="168.2881">
				<stop  offset="0" style="stop-color:#07677D"/>
				<stop  offset="0.543" style="stop-color:#1F96B2"/>
				<stop  offset="0.6116" style="stop-color:#198AA4"/>
				<stop  offset="0.7476" style="stop-color:#0F778E"/>
				<stop  offset="0.8791" style="stop-color:#096B81"/>
				<stop  offset="1" style="stop-color:#07677D"/>
			</linearGradient>
			<path fill="url(#SVGID_1_)" d="M43.032,172.825c0.682-0.995,1.523-1.492,2.523-1.492c0.909,0,1.682,0.387,2.319,1.161
				c0.636,0.774,0.955,1.714,0.955,2.818c0,0.995-0.228,1.796-0.682,2.404l-0.068,0.083l-16.503,27.02
				c-0.818,1.272-1.853,2.308-3.103,3.108c-1.251,0.802-2.603,1.202-4.057,1.202c-1.364,0-2.649-0.359-3.853-1.078
				c-1.205-0.717-2.216-1.712-3.035-2.984L0.955,178.13c-0.273-0.386-0.501-0.814-0.682-1.285C0.091,176.376,0,175.864,0,175.311
				c0-1.104,0.318-2.043,0.955-2.818c0.636-0.773,1.408-1.161,2.319-1.161c1.091,0,1.954,0.526,2.591,1.575l15.89,25.777
				c0.318,0.443,0.716,0.926,1.194,1.45c0.477,0.526,0.965,0.787,1.466,0.787c0.5,0,0.989-0.262,1.466-0.787
				c0.477-0.525,0.853-1.008,1.125-1.45L43.032,172.825z"/>
			<linearGradient id="SVGID_2_" gradientUnits="userSpaceOnUse" x1="58.9215" y1="213.2881" x2="58.9215" y2="168.2881">
				<stop  offset="0" style="stop-color:#07677D"/>
				<stop  offset="0.543" style="stop-color:#1F96B2"/>
				<stop  offset="0.6116" style="stop-color:#198AA4"/>
				<stop  offset="0.7476" style="stop-color:#0F778E"/>
				<stop  offset="0.8791" style="stop-color:#096B81"/>
				<stop  offset="1" style="stop-color:#07677D"/>
			</linearGradient>
			<path fill="url(#SVGID_2_)" d="M62.195,203.492c0,1.107-0.319,2.045-0.955,2.819c-0.638,0.774-1.41,1.16-2.319,1.16
				c-0.91,0-1.683-0.385-2.319-1.16c-0.638-0.773-0.955-1.712-0.955-2.819v-28.181c0-1.104,0.318-2.043,0.955-2.818
				c0.636-0.773,1.408-1.161,2.319-1.161c0.909,0,1.681,0.387,2.319,1.161c0.636,0.774,0.955,1.714,0.955,2.818V203.492z"/>
			<linearGradient id="SVGID_3_" gradientUnits="userSpaceOnUse" x1="95.6792" y1="213.2881" x2="95.6792" y2="168.2881">
				<stop  offset="0" style="stop-color:#07677D"/>
				<stop  offset="0.543" style="stop-color:#1F96B2"/>
				<stop  offset="0.6116" style="stop-color:#198AA4"/>
				<stop  offset="0.7476" style="stop-color:#0F778E"/>
				<stop  offset="0.8791" style="stop-color:#096B81"/>
				<stop  offset="1" style="stop-color:#07677D"/>
			</linearGradient>
			<path fill="url(#SVGID_3_)" d="M78.357,207.47c-1.273,0-2.479-0.29-3.614-0.87c-1.137-0.58-2.126-1.367-2.967-2.362
				c-0.842-0.994-1.512-2.155-2.012-3.481c-0.501-1.326-0.75-2.762-0.75-4.31v-21.136c0-1.104,0.318-2.043,0.955-2.818
				c0.636-0.773,1.408-1.161,2.319-1.161c0.863,0,1.625,0.387,2.284,1.161c0.659,0.774,0.989,1.714,0.989,2.818v21.136
				c0,0.829,0.261,1.548,0.784,2.155c0.522,0.609,1.125,0.911,1.807,0.911h40.918c0.909,0,1.682,0.388,2.319,1.161
				c0.636,0.774,0.955,1.714,0.955,2.818c0,1.107-0.318,2.045-0.955,2.819c-0.637,0.774-1.41,1.16-2.319,1.16H78.357z"/>
			<linearGradient id="SVGID_4_" gradientUnits="userSpaceOnUse" x1="155.828" y1="213.2881" x2="155.828" y2="168.2881">
				<stop  offset="0" style="stop-color:#07677D"/>
				<stop  offset="0.543" style="stop-color:#1F96B2"/>
				<stop  offset="0.6116" style="stop-color:#198AA4"/>
				<stop  offset="0.7476" style="stop-color:#0F778E"/>
				<stop  offset="0.8791" style="stop-color:#096B81"/>
				<stop  offset="1" style="stop-color:#07677D"/>
			</linearGradient>
			<path fill="url(#SVGID_4_)" d="M138.507,207.47c-1.273,0-2.479-0.29-3.615-0.87c-1.137-0.58-2.126-1.367-2.967-2.362
				c-0.842-0.994-1.512-2.155-2.012-3.481c-0.501-1.326-0.75-2.762-0.75-4.31v-21.136c0-1.104,0.318-2.043,0.955-2.818
				c0.636-0.773,1.408-1.161,2.319-1.161c0.863,0,1.625,0.387,2.285,1.161c0.659,0.774,0.989,1.714,0.989,2.818v21.136
				c0,0.829,0.261,1.548,0.784,2.155c0.523,0.609,1.125,0.911,1.807,0.911h40.918c0.908,0,1.681,0.388,2.319,1.161
				c0.636,0.774,0.955,1.714,0.955,2.818c0,1.107-0.319,2.045-0.955,2.819c-0.638,0.774-1.41,1.16-2.319,1.16H138.507z"/>
			<linearGradient id="SVGID_5_" gradientUnits="userSpaceOnUse" x1="213.7257" y1="213.2881" x2="213.7257" y2="168.2881">
				<stop  offset="0" style="stop-color:#07677D"/>
				<stop  offset="0.543" style="stop-color:#1F96B2"/>
				<stop  offset="0.6116" style="stop-color:#198AA4"/>
				<stop  offset="0.7476" style="stop-color:#0F778E"/>
				<stop  offset="0.8791" style="stop-color:#096B81"/>
				<stop  offset="1" style="stop-color:#07677D"/>
			</linearGradient>
			<path fill="url(#SVGID_5_)" d="M195.108,205.979c-0.682,0.995-1.523,1.491-2.523,1.491c-0.91,0-1.683-0.385-2.319-1.16
				c-0.638-0.773-0.955-1.712-0.955-2.819c0-0.994,0.227-1.795,0.682-2.403l16.572-27.103c0.772-1.271,1.795-2.307,3.068-3.108
				c1.273-0.801,2.637-1.202,4.092-1.202c1.364,0,2.66,0.36,3.887,1.077c1.227,0.719,2.227,1.714,3.001,2.984l16.572,26.937
				c0.273,0.387,0.5,0.816,0.682,1.285c0.181,0.47,0.273,0.982,0.273,1.533c0,1.107-0.319,2.045-0.955,2.819
				c-0.638,0.774-1.409,1.16-2.319,1.16c-1.091,0-1.955-0.524-2.591-1.574l-15.89-25.777c-0.319-0.442-0.716-0.925-1.194-1.45
				c-0.477-0.525-0.966-0.787-1.466-0.787c-0.501,0-0.989,0.262-1.467,0.787c-0.477,0.526-0.852,1.008-1.125,1.45L195.108,205.979z"
				/>
		</g>
		<g id="AutoSport_1_">
			<linearGradient id="SVGID_6_" gradientUnits="userSpaceOnUse" x1="12.4635" y1="214.2881" x2="12.4635" y2="237.2881">
				<stop  offset="0.0108" style="stop-color:#BEBEBE"/>
				<stop  offset="1" style="stop-color:#808080"/>
			</linearGradient>
			<path fill="url(#SVGID_6_)" d="M4.337,232.018c-0.298,0.434-0.665,0.651-1.102,0.651c-0.397,0-0.734-0.168-1.012-0.507
				c-0.278-0.338-0.417-0.747-0.417-1.23c0-0.434,0.099-0.784,0.297-1.05l7.233-11.829c0.337-0.555,0.784-1.007,1.34-1.357
				c0.555-0.35,1.151-0.525,1.786-0.525c0.595,0,1.161,0.157,1.697,0.471s0.972,0.748,1.31,1.303l7.233,11.758
				c0.119,0.169,0.218,0.356,0.298,0.561c0.079,0.205,0.119,0.428,0.119,0.669c0,0.483-0.139,0.892-0.417,1.23
				c-0.278,0.338-0.615,0.507-1.012,0.507c-0.476,0-0.853-0.229-1.131-0.687l-6.936-11.252c-0.139-0.193-0.312-0.403-0.521-0.633
				c-0.209-0.229-0.422-0.344-0.64-0.344s-0.432,0.115-0.64,0.344c-0.209,0.23-0.372,0.44-0.491,0.633L4.337,232.018z"/>
			<linearGradient id="SVGID_7_" gradientUnits="userSpaceOnUse" x1="37.4674" y1="214.2881" x2="37.4674" y2="237.2881">
				<stop  offset="0.0108" style="stop-color:#BEBEBE"/>
				<stop  offset="1" style="stop-color:#808080"/>
			</linearGradient>
			<path fill="url(#SVGID_7_)" d="M28.21,224.782c0,0.434,0.044,0.91,0.134,1.429c0.089,0.519,0.258,0.995,0.506,1.429
				c0.248,0.434,0.585,0.803,1.012,1.103c0.426,0.302,0.987,0.452,1.682,0.452h11.847c0.675,0,1.23-0.15,1.667-0.452
				c0.436-0.301,0.779-0.669,1.027-1.103c0.248-0.434,0.417-0.91,0.506-1.429c0.089-0.519,0.134-0.995,0.134-1.429v-6.114
				c0-0.482,0.138-0.892,0.417-1.23c0.278-0.338,0.615-0.507,1.012-0.507c0.397,0,0.734,0.169,1.012,0.507
				c0.278,0.338,0.417,0.748,0.417,1.23v6.114c0,0.917-0.124,1.839-0.372,2.767c-0.248,0.929-0.61,1.773-1.086,2.532
				c-0.476,0.76-1.052,1.381-1.726,1.863c-0.675,0.483-1.439,0.724-2.292,0.724H30.532c-0.814-0.048-1.538-0.32-2.173-0.814
				c-0.635-0.494-1.176-1.114-1.622-1.863c-0.447-0.747-0.789-1.579-1.027-2.496c-0.238-0.916-0.357-1.821-0.357-2.714v-6.114
				c0-0.482,0.138-0.892,0.417-1.23c0.278-0.338,0.615-0.507,1.012-0.507s0.734,0.169,1.012,0.507
				c0.278,0.338,0.417,0.748,0.417,1.23V224.782z"/>
			<linearGradient id="SVGID_8_" gradientUnits="userSpaceOnUse" x1="64.2271" y1="214.2881" x2="64.2271" y2="237.2881">
				<stop  offset="0.0108" style="stop-color:#BEBEBE"/>
				<stop  offset="1" style="stop-color:#808080"/>
			</linearGradient>
			<path fill="url(#SVGID_8_)" d="M74.467,216.895c0.397,0,0.734,0.169,1.012,0.507c0.278,0.338,0.417,0.748,0.417,1.23
				c0,0.483-0.139,0.892-0.417,1.23c-0.278,0.338-0.615,0.507-1.012,0.507h-8.811v10.564c0,0.483-0.139,0.892-0.417,1.23
				c-0.278,0.338-0.615,0.507-1.012,0.507c-0.397,0-0.735-0.168-1.012-0.507c-0.278-0.338-0.417-0.747-0.417-1.23v-10.564h-8.93
				c-0.357-0.049-0.665-0.235-0.923-0.561c-0.258-0.326-0.387-0.718-0.387-1.176c0-0.482,0.138-0.892,0.417-1.23
				c0.278-0.338,0.615-0.507,1.012-0.507H74.467z"/>
			<linearGradient id="SVGID_9_" gradientUnits="userSpaceOnUse" x1="90.2433" y1="214.2881" x2="90.2433" y2="237.2881">
				<stop  offset="0.0108" style="stop-color:#BEBEBE"/>
				<stop  offset="1" style="stop-color:#808080"/>
			</linearGradient>
			<path fill="url(#SVGID_9_)" d="M102.358,224.782c0,0.917-0.124,1.839-0.372,2.767c-0.248,0.929-0.61,1.773-1.086,2.532
				c-0.476,0.76-1.052,1.381-1.726,1.863c-0.675,0.483-1.439,0.724-2.292,0.724H83.308c-0.814-0.048-1.538-0.32-2.173-0.814
				c-0.635-0.494-1.176-1.114-1.622-1.863c-0.447-0.747-0.789-1.579-1.027-2.496c-0.238-0.916-0.357-1.821-0.357-2.714
				c0-0.916,0.123-1.839,0.372-2.767c0.248-0.928,0.61-1.773,1.086-2.532c0.476-0.76,1.052-1.381,1.726-1.863
				c0.674-0.483,1.439-0.724,2.292-0.724h13.574c0.813,0.049,1.538,0.32,2.173,0.814c0.635,0.495,1.176,1.116,1.622,1.863
				c0.447,0.748,0.789,1.58,1.027,2.496C102.239,222.986,102.358,223.89,102.358,224.782z M96.256,229.196
				c0.675,0,1.23-0.15,1.667-0.452c0.436-0.301,0.779-0.669,1.027-1.103c0.248-0.434,0.417-0.91,0.506-1.429
				c0.089-0.519,0.134-0.995,0.134-1.429c0-0.434-0.045-0.91-0.134-1.429c-0.089-0.519-0.259-0.995-0.506-1.429
				c-0.248-0.434-0.591-0.802-1.027-1.103c-0.437-0.302-0.992-0.452-1.667-0.452H84.231c-0.695,0-1.255,0.15-1.682,0.452
				c-0.427,0.302-0.764,0.669-1.012,1.103c-0.249,0.434-0.417,0.91-0.506,1.429c-0.089,0.519-0.134,0.995-0.134,1.429
				c0,0.434,0.045,0.91,0.134,1.429c0.089,0.519,0.258,0.995,0.506,1.429c0.248,0.434,0.585,0.803,1.012,1.103
				c0.426,0.302,0.987,0.452,1.682,0.452H96.256z"/>
			<linearGradient id="SVGID_10_" gradientUnits="userSpaceOnUse" x1="117.5092" y1="214.2881" x2="117.5092" y2="237.2881">
				<stop  offset="0.0108" style="stop-color:#BEBEBE"/>
				<stop  offset="1" style="stop-color:#808080"/>
			</linearGradient>
			<path fill="url(#SVGID_10_)" d="M109.293,226.519c-0.556,0-1.071-0.126-1.548-0.38c-0.476-0.253-0.893-0.597-1.25-1.031
				c-0.357-0.434-0.64-0.941-0.849-1.52c-0.208-0.579-0.312-1.206-0.312-1.881c0-0.675,0.104-1.302,0.312-1.881
				c0.209-0.579,0.491-1.085,0.849-1.52c0.357-0.434,0.774-0.778,1.25-1.032c0.476-0.253,0.992-0.379,1.548-0.379h18.068
				c0.397,0,0.734,0.169,1.012,0.507c0.278,0.338,0.417,0.748,0.417,1.23c0,0.483-0.139,0.892-0.417,1.23
				c-0.278,0.338-0.615,0.507-1.012,0.507h-18.128c-0.298,0-0.561,0.126-0.789,0.379c-0.228,0.253-0.342,0.573-0.342,0.959
				c0,0.362,0.114,0.675,0.342,0.94c0.228,0.266,0.491,0.398,0.789,0.398h16.461c0.555,0,1.076,0.126,1.563,0.38
				c0.486,0.253,0.908,0.597,1.265,1.031c0.357,0.434,0.64,0.947,0.848,1.538c0.209,0.591,0.313,1.225,0.313,1.899
				c0,0.676-0.104,1.302-0.313,1.881c-0.208,0.579-0.491,1.085-0.848,1.52c-0.357,0.434-0.779,0.773-1.265,1.014
				c-0.487,0.241-1.008,0.362-1.563,0.362h-18.039c-0.397,0-0.734-0.168-1.012-0.507c-0.278-0.338-0.417-0.747-0.417-1.23
				c0-0.482,0.138-0.892,0.417-1.23c0.278-0.338,0.615-0.507,1.012-0.507h18.158c0.298,0,0.556-0.126,0.774-0.379
				c0.218-0.254,0.328-0.561,0.328-0.923c0-0.385-0.109-0.711-0.328-0.977c-0.218-0.265-0.476-0.397-0.774-0.397H109.293z"/>
			<linearGradient id="SVGID_11_" gradientUnits="userSpaceOnUse" x1="144.299" y1="214.2881" x2="144.299" y2="237.2881">
				<stop  offset="0.0108" style="stop-color:#BEBEBE"/>
				<stop  offset="1" style="stop-color:#808080"/>
			</linearGradient>
			<path fill="url(#SVGID_11_)" d="M132.66,218.632c0-0.482,0.138-0.892,0.417-1.23c0.278-0.338,0.615-0.507,1.012-0.507h17.831
				c0.555,0,1.076,0.126,1.562,0.379c0.486,0.254,0.913,0.597,1.28,1.032c0.367,0.434,0.655,0.94,0.863,1.52
				c0.209,0.579,0.313,1.206,0.313,1.881c0,0.675-0.104,1.302-0.313,1.881c-0.209,0.579-0.497,1.085-0.863,1.52
				c-0.368,0.434-0.794,0.778-1.28,1.031c-0.486,0.254-1.008,0.38-1.562,0.38H136.44c-0.258,0.049-0.476,0.193-0.655,0.434
				c-0.179,0.241-0.268,0.543-0.268,0.904v3.075c0,0.483-0.144,0.892-0.432,1.23c-0.288,0.338-0.62,0.507-0.997,0.507
				c-0.397,0-0.734-0.168-1.012-0.507c-0.278-0.338-0.417-0.747-0.417-1.23v-3.473c0-0.603,0.089-1.175,0.268-1.718
				c0.179-0.543,0.432-1.014,0.759-1.411c0.327-0.398,0.704-0.711,1.131-0.941c0.426-0.229,0.898-0.344,1.414-0.344h15.806
				c0.297,0,0.561-0.126,0.789-0.379c0.228-0.254,0.342-0.573,0.342-0.959c0-0.362-0.114-0.675-0.342-0.941
				c-0.228-0.265-0.491-0.397-0.789-0.397h-17.95c-0.397,0-0.734-0.168-1.012-0.507C132.799,219.524,132.66,219.115,132.66,218.632z
				"/>
			<linearGradient id="SVGID_12_" gradientUnits="userSpaceOnUse" x1="171.029" y1="214.2881" x2="171.029" y2="237.2881">
				<stop  offset="0.0108" style="stop-color:#BEBEBE"/>
				<stop  offset="1" style="stop-color:#808080"/>
			</linearGradient>
			<path fill="url(#SVGID_12_)" d="M183.144,224.782c0,0.917-0.124,1.839-0.372,2.767c-0.249,0.929-0.61,1.773-1.087,2.532
				c-0.476,0.76-1.052,1.381-1.726,1.863c-0.674,0.483-1.438,0.724-2.291,0.724h-13.574c-0.814-0.048-1.538-0.32-2.173-0.814
				c-0.635-0.494-1.176-1.114-1.622-1.863c-0.446-0.747-0.789-1.579-1.027-2.496c-0.238-0.916-0.357-1.821-0.357-2.714
				c0-0.916,0.124-1.839,0.373-2.767c0.248-0.928,0.61-1.773,1.086-2.532c0.476-0.76,1.051-1.381,1.726-1.863
				c0.674-0.483,1.438-0.724,2.292-0.724h13.574c0.814,0.049,1.538,0.32,2.173,0.814c0.635,0.495,1.176,1.116,1.623,1.863
				c0.446,0.748,0.788,1.58,1.026,2.496C183.025,222.986,183.144,223.89,183.144,224.782z M177.042,229.196
				c0.674,0,1.231-0.15,1.667-0.452c0.436-0.301,0.779-0.669,1.026-1.103c0.248-0.434,0.417-0.91,0.506-1.429
				c0.09-0.519,0.134-0.995,0.134-1.429c0-0.434-0.044-0.91-0.134-1.429c-0.089-0.519-0.258-0.995-0.506-1.429
				c-0.248-0.434-0.591-0.802-1.026-1.103c-0.437-0.302-0.993-0.452-1.667-0.452h-12.026c-0.695,0-1.255,0.15-1.681,0.452
				c-0.427,0.302-0.765,0.669-1.013,1.103c-0.248,0.434-0.416,0.91-0.506,1.429c-0.089,0.519-0.133,0.995-0.133,1.429
				c0,0.434,0.044,0.91,0.133,1.429c0.09,0.519,0.258,0.995,0.506,1.429c0.248,0.434,0.585,0.803,1.013,1.103
				c0.426,0.302,0.986,0.452,1.681,0.452H177.042z"/>
			<linearGradient id="SVGID_13_" gradientUnits="userSpaceOnUse" x1="197.7593" y1="214.2881" x2="197.7593" y2="237.2881">
				<stop  offset="0.0108" style="stop-color:#BEBEBE"/>
				<stop  offset="1" style="stop-color:#808080"/>
			</linearGradient>
			<path fill="url(#SVGID_13_)" d="M205.26,226.519c0.536,0.41,1.082,0.85,1.638,1.32s1.12,0.983,1.697,1.538
				c0.218,0.193,0.407,0.416,0.566,0.669c0.158,0.253,0.238,0.549,0.238,0.886c0,0.483-0.139,0.892-0.417,1.23
				c-0.278,0.338-0.615,0.507-1.012,0.507c-0.338,0-0.675-0.168-1.012-0.507c-0.814-0.723-1.648-1.422-2.501-2.098
				c-0.854-0.675-1.742-1.278-2.664-1.808c-0.923-0.531-1.88-0.953-2.872-1.267c-0.993-0.313-2.025-0.47-3.096-0.47h-5.924
				c-0.258,0.049-0.477,0.193-0.656,0.434s-0.268,0.543-0.268,0.904v3.075c0,0.483-0.144,0.892-0.432,1.23
				c-0.288,0.338-0.62,0.507-0.997,0.507c-0.397,0-0.734-0.168-1.012-0.507c-0.278-0.338-0.417-0.747-0.417-1.23v-3.473
				c0-0.603,0.094-1.175,0.283-1.718s0.442-1.014,0.759-1.411c0.318-0.398,0.695-0.711,1.132-0.941
				c0.436-0.229,0.913-0.344,1.429-0.344h15.776c0.297,0,0.561-0.126,0.789-0.379c0.228-0.254,0.342-0.573,0.342-0.959
				c0-0.362-0.114-0.675-0.342-0.941c-0.228-0.265-0.491-0.397-0.789-0.397h-17.95c-0.397,0-0.734-0.168-1.012-0.507
				c-0.278-0.338-0.417-0.747-0.417-1.23c0-0.482,0.139-0.892,0.417-1.23c0.278-0.338,0.614-0.507,1.012-0.507h17.831
				c0.555,0,1.076,0.126,1.562,0.379c0.486,0.254,0.913,0.597,1.28,1.032c0.367,0.434,0.655,0.94,0.863,1.52
				c0.209,0.579,0.313,1.206,0.313,1.881c0,0.675-0.104,1.302-0.313,1.881c-0.209,0.579-0.497,1.085-0.863,1.52
				c-0.367,0.434-0.794,0.778-1.28,1.031c-0.486,0.254-1.008,0.38-1.562,0.38H205.26z"/>
			<linearGradient id="SVGID_14_" gradientUnits="userSpaceOnUse" x1="224.0421" y1="214.2881" x2="224.0421" y2="237.2881">
				<stop  offset="0.0108" style="stop-color:#BEBEBE"/>
				<stop  offset="1" style="stop-color:#808080"/>
			</linearGradient>
			<path fill="url(#SVGID_14_)" d="M234.282,216.895c0.397,0,0.734,0.169,1.013,0.507c0.277,0.338,0.416,0.748,0.416,1.23
				c0,0.483-0.139,0.892-0.416,1.23c-0.279,0.338-0.615,0.507-1.013,0.507h-8.811v10.564c0,0.483-0.139,0.892-0.417,1.23
				c-0.278,0.338-0.614,0.507-1.012,0.507c-0.397,0-0.734-0.168-1.012-0.507c-0.278-0.338-0.416-0.747-0.416-1.23v-10.564h-8.93
				c-0.357-0.049-0.665-0.235-0.923-0.561c-0.258-0.326-0.387-0.718-0.387-1.176c0-0.482,0.139-0.892,0.417-1.23
				c0.278-0.338,0.615-0.507,1.012-0.507H234.282z"/>
		</g>
	</g>
	<g id="Shape">
		<linearGradient id="SVGID_15_" gradientUnits="userSpaceOnUse" x1="19.334" y1="66.1345" x2="218.8058" y2="66.1345">
			<stop  offset="0" style="stop-color:#0D738B"/>
			<stop  offset="0.5054" style="stop-color:#1F96B2"/>
			<stop  offset="0.6445" style="stop-color:#1786A0"/>
			<stop  offset="0.8629" style="stop-color:#0C7189"/>
			<stop  offset="1" style="stop-color:#086980"/>
		</linearGradient>
		<path fill="url(#SVGID_15_)" d="M118.992,11.785c39.547,0,72.68,22.225,80.774,51.806l19.04,12.074
			c-0.63-20.099-11.009-38.891-29.4-53.102C170.576,8.013,145.569,0,118.992,0S67.408,8.013,48.577,22.563
			C31.061,36.099,20.813,53.792,19.334,72.81l17.394,11.415c-0.001-0.007-0.001-0.015-0.002-0.022l72.061,47.338
			c1.235,0.812,2.838,0.993,4.143,0.297c0.009-0.005,0.017-0.009,0.026-0.014l13.034-7.056c1.875-1.015,3.21-2.75,3.747-4.755
			V75.468l-21.766,11.784l-0.09,17.56L53.619,71.99H36.633C40.229,38.317,75.781,11.785,118.992,11.785z"/>
		<linearGradient id="SVGID_16_" gradientUnits="userSpaceOnUse" x1="19.334" y1="90.1537" x2="218.8058" y2="90.1537">
			<stop  offset="0" style="stop-color:#A8A8A8"/>
			<stop  offset="0.4839" style="stop-color:#CCCCCC"/>
			<stop  offset="1" style="stop-color:#808080"/>
		</linearGradient>
		<path fill="url(#SVGID_16_)" d="M119.148,144.503c-39.547,0-72.68-22.225-80.774-51.806l-19.04-12.074
			c0.63,20.099,11.009,38.891,29.4,53.102c18.83,14.55,43.837,22.563,70.414,22.563s51.584-8.013,70.414-22.563
			c17.517-13.535,27.764-31.228,29.243-50.247l-17.394-11.415c0.001,0.007,0.001,0.015,0.002,0.022l-72.061-47.338
			c-1.235-0.812-2.838-0.993-4.143-0.297c-0.009,0.005-0.017,0.009-0.026,0.014l-13.034,7.056c-1.875,1.015-3.21,2.75-3.747,4.755
			V80.82l21.766-11.784l0.09-17.56l54.262,32.822h16.986C197.911,117.971,162.359,144.503,119.148,144.503z"/>
	</g>
</g>
</svg>
